<?xml version="1.0" encoding="UTF-8" standalone="no"?>
<!-- Created with Inkscape (http://www.inkscape.org/) -->

<svg
   xmlns:dc="http://purl.org/dc/elements/1.1/"
   xmlns:cc="http://creativecommons.org/ns#"
   xmlns:rdf="http://www.w3.org/1999/02/22-rdf-syntax-ns#"
   xmlns:svg="http://www.w3.org/2000/svg"
   xmlns="http://www.w3.org/2000/svg"
   xmlns:sodipodi="http://sodipodi.sourceforge.net/DTD/sodipodi-0.dtd"
   xmlns:inkscape="http://www.inkscape.org/namespaces/inkscape"
   id="svg4779"
   version="1.1"
   inkscape:version="0.91 r13725"
   xml:space="preserve"
   width="1000"
   height="750"
   viewBox="0 0 1000 750"
   sodipodi:docname="psuti_logo_invert_CS3.ai.svg"><metadata
     id="metadata4785"><rdf:RDF><cc:Work
         rdf:about=""><dc:format>image/svg+xml</dc:format><dc:type
           rdf:resource="http://purl.org/dc/dcmitype/StillImage" /></cc:Work></rdf:RDF></metadata><defs
     id="defs4783"><clipPath
       clipPathUnits="userSpaceOnUse"
       id="clipPath4795"><path
         d="M 0,600 800,600 800,0 0,0 0,600 Z"
         id="path4797"
         inkscape:connector-curvature="0" /></clipPath><clipPath
       clipPathUnits="userSpaceOnUse"
       id="clipPath4803"><path
         d="m 219.538,338.875 74.535,0 0,-74.535 -74.535,0 0,74.535 z"
         id="path4805"
         inkscape:connector-curvature="0" /></clipPath><clipPath
       clipPathUnits="userSpaceOnUse"
       id="clipPath4807"><path
         d="m 219.538,338.875 74.535,0 0,-74.535 -74.535,0 0,74.535 z"
         id="path4809"
         inkscape:connector-curvature="0" /></clipPath><clipPath
       clipPathUnits="userSpaceOnUse"
       id="clipPath4849"><path
         d="m 212.139,342.051 85,0 0,-85 -85,0 0,85 z"
         id="path4851"
         inkscape:connector-curvature="0" /></clipPath><clipPath
       clipPathUnits="userSpaceOnUse"
       id="clipPath4873"><path
         d="M 0,600 800,600 800,0 0,0 0,600 Z"
         id="path4875"
         inkscape:connector-curvature="0" /></clipPath></defs><sodipodi:namedview
     pagecolor="#ffffff"
     bordercolor="#666666"
     borderopacity="1"
     objecttolerance="10"
     gridtolerance="10"
     guidetolerance="10"
     inkscape:pageopacity="0"
     inkscape:pageshadow="2"
     inkscape:window-width="934"
     inkscape:window-height="658"
     id="namedview4781"
     showgrid="false"
     inkscape:zoom="1.18"
     inkscape:cx="503.81356"
     inkscape:cy="373.86293"
     inkscape:window-x="111"
     inkscape:window-y="38"
     inkscape:window-maximized="0"
     inkscape:current-layer="g4787" /><g
     id="g4787"
     inkscape:groupmode="layer"
     inkscape:label="psuti_logo_invert_CS3"
     transform="matrix(1.25,0,0,-1.25,0,750)"><path
       d="m 661.92341,183.81923 -535,0 0,250 535,0 0,-250 z"
       style="fill:#231f20;fill-opacity:1;fill-rule:nonzero;stroke:none"
       id="path4789"
       inkscape:connector-curvature="0" /><g
       id="g4801"
       mask="none" /><g
       id="g4847" /><g
       id="g4853"
       inkscape:export-xdpi="90"
       inkscape:export-ydpi="90"><g
         clip-path="url(#clipPath4849)"
         id="g4855"><g
           transform="translate(297.1391,299.5513)"
           id="g4857"><path
             d="M 0,0 C 0,-23.472 -19.028,-42.5 -42.5,-42.5 -65.972,-42.5 -85,-23.472 -85,0 -85,23.472 -65.972,42.5 -42.5,42.5 -19.028,42.5 0,23.472 0,0"
             style="fill:#ffffff;fill-opacity:1;fill-rule:nonzero;stroke:none"
             id="path4859"
             inkscape:connector-curvature="0" /></g></g></g><g
       id="g4813"
       inkscape:export-xdpi="90"
       inkscape:export-ydpi="90"><g
         id="g4815"
         clip-path="url(#clipPath4803)"><g
           id="g4817"><g
             id="g4819" /><g
             id="g4821"><g
               id="g4823"
               clip-path="url(#clipPath4807)"><g
                 id="g4825"
                 transform="translate(256.8052,266.627)"><path
                   inkscape:connector-curvature="0"
                   id="path4827"
                   style="fill:#231f20;fill-opacity:1;fill-rule:nonzero;stroke:none"
                   d="m 0,0 c -19.289,0 -34.981,15.692 -34.981,34.981 0,19.289 15.692,34.981 34.981,34.981 19.289,0 34.982,-15.692 34.982,-34.981 C 34.982,15.692 19.289,0 0,0 m 0,72.249 c -20.549,0 -37.268,-16.719 -37.268,-37.268 0,-20.549 16.719,-37.268 37.268,-37.268 20.55,0 37.268,16.719 37.268,37.268 C 37.268,55.53 20.55,72.249 0,72.249" /></g><g
                 id="g4829"
                 transform="translate(258.9717,274.9482)"><path
                   inkscape:connector-curvature="0"
                   id="path4831"
                   style="fill:#231f20;fill-opacity:1;fill-rule:nonzero;stroke:none"
                   d="m 0,0 c -15.834,0 -28.716,12.882 -28.716,28.716 0,15.834 12.882,28.716 28.716,28.716 15.834,0 28.716,-12.882 28.716,-28.716 C 28.716,12.882 15.834,0 0,0 m 0,59.499 c -16.974,0 -30.783,-13.809 -30.783,-30.783 0,-16.974 13.809,-30.782 30.783,-30.782 16.974,0 30.783,13.808 30.783,30.782 C 30.783,45.69 16.974,59.499 0,59.499" /></g><g
                 id="g4833"
                 transform="translate(261.1382,283.2705)"><path
                   inkscape:connector-curvature="0"
                   id="path4835"
                   style="fill:#231f20;fill-opacity:1;fill-rule:nonzero;stroke:none"
                   d="M 0,0 C -12.379,0 -22.45,10.071 -22.45,22.45 -22.45,34.829 -12.379,44.9 0,44.9 12.379,44.9 22.45,34.829 22.45,22.45 22.45,10.071 12.379,0 0,0 m 0,46.748 c -13.398,0 -24.298,-10.9 -24.298,-24.298 0,-13.397 10.9,-24.298 24.298,-24.298 13.398,0 24.298,10.901 24.298,24.298 0,13.398 -10.9,24.298 -24.298,24.298" /></g><g
                 id="g4837"
                 transform="translate(263.3042,291.5928)"><path
                   inkscape:connector-curvature="0"
                   id="path4839"
                   style="fill:#231f20;fill-opacity:1;fill-rule:nonzero;stroke:none"
                   d="m 0,0 c -8.924,0 -16.185,7.26 -16.185,16.184 0,8.924 7.261,16.185 16.185,16.185 8.924,0 16.185,-7.261 16.185,-16.185 C 16.185,7.26 8.924,0 0,0 m 0,33.997 c -9.822,0 -17.812,-7.991 -17.812,-17.813 0,-9.822 7.99,-17.813 17.812,-17.813 9.822,0 17.812,7.991 17.812,17.813 0,9.822 -7.99,17.813 -17.812,17.813" /></g><g
                 id="g4841"
                 transform="translate(265.4707,299.9141)"><path
                   inkscape:connector-curvature="0"
                   id="path4843"
                   style="fill:#231f20;fill-opacity:1;fill-rule:nonzero;stroke:none"
                   d="m 0,0 c -5.47,0 -9.919,4.45 -9.919,9.919 0,5.47 4.449,9.919 9.919,9.919 5.469,0 9.919,-4.449 9.919,-9.919 C 9.919,4.45 5.469,0 0,0 m 0,21.247 c -6.246,0 -11.328,-5.082 -11.328,-11.328 0,-6.246 5.082,-11.327 11.328,-11.327 6.246,0 11.327,5.081 11.327,11.327 0,6.246 -5.081,11.328 -11.327,11.328" /></g></g></g></g></g></g><g
       id="g4861"
       transform="translate(318.6704,276.701)"
       inkscape:export-xdpi="90"
       inkscape:export-ydpi="90"><path
         d="m 0,0 0,46.702 42.031,0 0,-46.702 -12.342,0 0,35.693 -17.347,0 L 12.342,0 0,0 Z"
         style="fill:#ffffff;fill-opacity:1;fill-rule:nonzero;stroke:none"
         id="path4863"
         inkscape:connector-curvature="0" /></g><g
       id="g4865"
       transform="translate(372.937,276.701)"
       inkscape:export-xdpi="90"
       inkscape:export-ydpi="90"><path
         d="m 0,0 0,46.702 33.692,0 0,-11.009 -21.35,0 L 12.342,0 0,0 Z"
         style="fill:#ffffff;fill-opacity:1;fill-rule:nonzero;stroke:none"
         id="path4867"
         inkscape:connector-curvature="0" /></g><g
       id="g4869"
       inkscape:export-xdpi="90"
       inkscape:export-ydpi="90"><g
         id="g4871"
         clip-path="url(#clipPath4873)"><g
           id="g4877"
           transform="translate(439.0254,281.7381)"><path
             d="m 0,0 c -1.157,-1.49 -2.392,-2.68 -3.703,-3.569 -1.313,-0.89 -2.681,-1.523 -4.104,-1.902 -1.423,-0.377 -2.935,-0.567 -4.536,-0.567 -1.201,0 -2.425,0.123 -3.67,0.367 -1.245,0.245 -2.512,0.546 -3.802,0.901 l 0,10.207 c 0.8,-0.311 1.678,-0.544 2.635,-0.7 0.956,-0.156 1.878,-0.233 2.769,-0.233 1.468,0 2.712,0.233 3.736,0.7 1.023,0.467 1.801,1.301 2.335,2.502 l 0.734,1.602 -18.213,32.357 13.676,0 10.275,-21.283 8.406,21.283 13.677,0 L 3.335,5.638 C 2.268,3.369 1.155,1.49 0,0"
             style="fill:#ffffff;fill-opacity:1;fill-rule:nonzero;stroke:none"
             id="path4879"
             inkscape:connector-curvature="0" /></g><g
           id="g4881"
           transform="translate(504.5068,323.4026)"><path
             d="m 0,0 0,-11.008 -13.143,0 0,-35.694 -12.342,0 0,35.694 -13.21,0 0,11.008 L 0,0 Z"
             style="fill:#ffffff;fill-opacity:1;fill-rule:nonzero;stroke:none"
             id="path4883"
             inkscape:connector-curvature="0" /></g><g
           id="g4885"
           transform="translate(542.8955,276.701)"><path
             d="m 0,0 0,19.081 c 0,1.29 0.021,2.612 0.066,3.97 0.043,1.356 0.112,2.591 0.202,3.702 L -18.012,0 l -11.675,0 0,46.702 12.341,0 0,-19.081 c 0,-1.291 -0.023,-2.625 -0.066,-4.003 -0.045,-1.38 -0.111,-2.625 -0.199,-3.736 l 18.279,26.82 11.674,0 L 12.342,0 0,0 Z"
             style="fill:#ffffff;fill-opacity:1;fill-rule:nonzero;stroke:none"
             id="path4887"
             inkscape:connector-curvature="0" /></g></g></g></g></svg>